# xmcd
#
# Track frame offsets: 
#        150
#        11830
#        24982
#        33447
#        46937
#        62040
#        75670
#        86340
#        97522
#        111902
#        123672
#        135977
#        150297
#        162750
#        172797
#        184077
#        197884
#        214815
#        227635
#        240470
#        253633
#        263351
#        276671
#        286791
#        301646
#        313313
#
# Disc length: 4363 seconds
#
# Revision: 2
# Processed by: cddbd v1.5.2PL0 Copyright (c) Steve Scherf et al.
# Submitted via: ExactAudioCopyFreeDBPlugin 1.0
#
DISCID=4811091a
DTITLE=Various Artist - Country Planet Country Golden Ballads Vol 2
DYEAR=1900
DGENRE=Country
TTITLE0=Kitty Wells - It Wasn't God Who Made Honky Tonk Angels
TTITLE1=Kenny Rogers - Ruby, Don't Take Your love To Town
TTITLE2=Billy Yo Spears - Baby On My Mind
TTITLE3=Lynn Anderson - Rose Garden
TTITLE4=Jeanie C. Riley - Harper Valley PTA
TTITLE5=Willie Nelson - No Tomorrow In Sight
TTITLE6=Jerry Lee Lewis and Linda Gail Lewis - Jackson
TTITLE7=Conway Twitty - Big Town
TTITLE8=Bob Luman - Lonely Women Make Good Lovers
TTITLE9=Bobby Bare - Music City USA
TTITLE10=Hank Thompson - The Wild Side Of Life
TTITLE11=Glen Campbell - Rhinestone Cowboy
TTITLE12=Porter Wagoner - Satisfied Mind
TTITLE13=Johnny Cash - Rock Island Line
TTITLE14=Roger Miller - King Of The Road
TTITLE15=Jimmy Dean - Big Bad John
TTITLE16=Boxcar Wilie - Take Me Home
TTITLE17=Faron Young - It's Four In The Morning
TTITLE18=Charley Pride - Crystal Chanderliers
TTITLE19=Johnny Paycheck - Take This Job And Show It
TTITLE20=Charley Pride - Kiss An Angel Good Morning
TTITLE21=Wanda Jackson - I Fall To Pieces
TTITLE22=Hank Locklin - Please Help Me I'm Falling
TTITLE23=Johnny Paycheck - I'm The Only Hell Mama Ever Raised
TTITLE24=Willie Nelson - Night Life
TTITLE25=Patsy Cline - A Church, A Courtroom, Then Goodbye
EXTD=
EXTT0=
EXTT1=
EXTT2=
EXTT3=
EXTT4=
EXTT5=
EXTT6=
EXTT7=
EXTT8=
EXTT9=
EXTT10=
EXTT11=
EXTT12=
EXTT13=
EXTT14=
EXTT15=
EXTT16=
EXTT17=
EXTT18=
EXTT19=
EXTT20=
EXTT21=
EXTT22=
EXTT23=
EXTT24=
EXTT25=
PLAYORDER=
